<svg width="48" height="48" viewBox="0 0 48 48" fill="none" xmlns="http://www.w3.org/2000/svg">
<circle cx="24" cy="24" r="20" stroke="#FCFBFB" stroke-width="2"/>
<path d="M26.1538 12.1538C26.1538 10.9625 25.1913 10 24 10C22.8087 10 21.8462 10.9625 21.8462 12.1538V21.8462H12.1538C10.9625 21.8462 10 22.8087 10 24C10 25.1913 10.9625 26.1538 12.1538 26.1538H21.8462V35.8462C21.8462 37.0375 22.8087 38 24 38C25.1913 38 26.1538 37.0375 26.1538 35.8462V26.1538H35.8462C37.0375 26.1538 38 25.1913 38 24C38 22.8087 37.0375 21.8462 35.8462 21.8462H26.1538V12.1538Z" fill="#FCFBFB"/>
</svg>
