<svg xmlns="http://www.w3.org/2000/svg" xmlns:xlink="http://www.w3.org/1999/xlink" width="48" zoomAndPan="magnify" viewBox="0 0 36 36.000001" height="48" preserveAspectRatio="xMidYMid meet" version="1.0"><defs><clipPath id="d75edd9096"><path d="M 0.488281 0 L 35.511719 0 L 35.511719 35.027344 L 0.488281 35.027344 Z M 0.488281 0 " clip-rule="nonzero"/></clipPath></defs><g clip-path="url(#d75edd9096)"><path fill="#ffffff" d="M 18 0 C 8.34375 0 0.488281 7.855469 0.488281 17.511719 C 0.488281 27.171875 8.34375 35.027344 18 35.027344 C 27.65625 35.027344 35.511719 27.171875 35.511719 17.511719 C 35.511719 7.855469 27.65625 0 18 0 Z M 18 3.503906 C 25.726562 3.503906 32.011719 9.789062 32.011719 17.511719 C 32.011719 25.238281 25.726562 31.523438 18 31.523438 C 10.273438 31.523438 3.988281 25.238281 3.988281 17.511719 C 3.988281 9.789062 10.273438 3.503906 18 3.503906 Z M 16.25 10.507812 L 16.25 15.761719 L 10.996094 15.761719 L 10.996094 19.265625 L 16.25 19.265625 L 16.25 24.519531 L 19.75 24.519531 L 19.75 19.265625 L 25.003906 19.265625 L 25.003906 15.761719 L 19.75 15.761719 L 19.75 10.507812 Z M 16.25 10.507812 " fill-opacity="1" fill-rule="nonzero"/></g></svg>