<svg width="48" height="48" viewBox="0 0 48 48" fill="none" xmlns="http://www.w3.org/2000/svg">
<g clip-path="url(#clip0_159_818)">
<path d="M18.1482 10.0667L17.7143 10.9286H11.9286C10.8618 10.9286 10 11.7904 10 12.8571C10 13.9239 10.8618 14.7857 11.9286 14.7857H35.0714C36.1382 14.7857 37 13.9239 37 12.8571C37 11.7904 36.1382 10.9286 35.0714 10.9286H29.2857L28.8518 10.0667C28.5263 9.40982 27.8574 9 27.1281 9H19.8719C19.1426 9 18.4737 9.40982 18.1482 10.0667ZM35.0714 16.7143H11.9286L13.2063 37.1451C13.3027 38.6699 14.5683 39.8571 16.0931 39.8571H30.9069C32.4317 39.8571 33.6973 38.6699 33.7937 37.1451L35.0714 16.7143Z" fill="white"/>
</g>
<defs>
<clipPath id="clip0_159_818">
<rect width="27" height="30.8571" fill="white" transform="translate(10 9)"/>
</clipPath>
</defs>
</svg>
