<svg width="40" height="41" viewBox="0 0 40 41" fill="none" xmlns="http://www.w3.org/2000/svg">
<path d="M32.3802 3.54511e-06C32.1421 0.000220887 31.9121 0.0866901 31.7327 0.243413L28.6935 2.90456L27.5159 2.31576C27.331 2.22321 27.1217 2.19116 26.9176 2.22414C26.7135 2.25711 26.525 2.35346 26.3787 2.49952L20.1876 8.69059C20.0029 8.87532 19.899 9.12587 19.899 9.38714V10.3059L1.17283 29.0321C1.02865 29.1765 0.932838 29.362 0.898632 29.5632C0.237756 33.448 -0.00346991 36.8262 3.76387e-05 39.9009C0.000179121 40.0375 0.0287544 40.1727 0.0839473 40.2977C0.13914 40.4228 0.219743 40.5349 0.320633 40.6272C0.421522 40.7194 0.540492 40.7896 0.669978 40.8333C0.799464 40.877 0.936634 40.8934 1.07277 40.8812C4.10648 40.611 7.67382 39.1265 10.1809 38.1672C10.3102 38.1175 10.4276 38.0411 10.5253 37.943L29.2525 19.2168H30.1703C30.2998 19.2169 30.4281 19.1915 30.5478 19.142C30.6675 19.0924 30.7762 19.0198 30.8678 18.9282L36.6163 13.1787C36.7773 13.0177 36.8776 12.8059 36.9 12.5792C36.9225 12.3526 36.8657 12.1252 36.7395 11.9357L36.3027 11.2815L39.7114 7.87281C39.8516 7.73263 39.9462 7.55343 39.9829 7.35861C40.0197 7.1638 39.9968 6.96243 39.9173 6.78083C38.4038 3.32833 36.0953 1.09608 32.6717 0.0432977C32.5773 0.014333 32.479 -0.000261467 32.3802 3.54511e-06ZM32.5736 2.12719C35.0108 2.99518 36.5776 4.47722 37.8045 6.99345L34.5594 10.2376C33.9127 9.37368 32.9787 8.37625 32.1176 7.49759C31.0244 6.38214 30.0645 5.48874 30.0645 5.48874C30.0168 5.44311 29.9605 5.4075 29.8989 5.38403C29.8373 5.36056 29.7715 5.34971 29.7056 5.35212C29.6075 5.35556 29.5127 5.3882 29.4333 5.44587C29.3539 5.50355 29.2936 5.58361 29.26 5.67581C29.2264 5.76802 29.2211 5.86815 29.2448 5.96338C29.2685 6.05861 29.3201 6.14459 29.3929 6.21031C29.3929 6.21031 30.338 7.08918 31.4133 8.18645C32.414 9.20753 33.5264 10.4368 34.0543 11.2334C34.0673 11.4008 34.123 11.5621 34.2159 11.7019L34.6517 12.3571L29.7624 17.2465H28.8445C28.5833 17.2465 28.3327 17.3503 28.148 17.5351L9.28519 36.3969C8.04339 36.8728 6.6022 37.4193 5.16359 37.8834C4.36206 36.5661 2.78957 35.7071 2.1811 35.4089C2.30329 33.7751 2.49372 32.0565 2.80261 30.1885L21.5605 11.4306C21.7112 11.6879 21.8859 11.968 22.0974 12.2734C22.286 12.5457 22.6336 12.9018 22.8776 13.2076L17.8478 17.818C17.8426 17.8227 17.8375 17.8275 17.8324 17.8324L9.88073 25.785L4.58152 30.6417C4.4852 30.73 4.42789 30.8529 4.42221 30.9834C4.41652 31.114 4.46293 31.2414 4.55122 31.3378C4.6395 31.4341 4.76244 31.4914 4.89298 31.4971C5.02352 31.5028 5.15097 31.4564 5.24729 31.3681L10.5542 26.5037C10.5594 26.499 10.5646 26.4942 10.5696 26.4893L18.5222 18.5366L23.5097 13.9648C24.1848 14.7202 24.9744 15.5157 25.9881 16.3488L21.903 19.6151C21.8889 19.6266 21.8754 19.6388 21.8626 19.6517L13.909 27.6053L7.28212 33.7906C7.23303 33.8342 7.19317 33.8872 7.16487 33.9465C7.13656 34.0058 7.12039 34.0701 7.11731 34.1357C7.11422 34.2013 7.12429 34.2668 7.1469 34.3285C7.16952 34.3901 7.20423 34.4466 7.249 34.4947C7.29377 34.5427 7.3477 34.5813 7.40761 34.6082C7.46751 34.6351 7.5322 34.6498 7.59785 34.6513C7.6635 34.6529 7.7288 34.6413 7.7899 34.6172C7.851 34.5931 7.90668 34.5571 7.95366 34.5112L14.5873 28.3202C14.5915 28.3164 14.5957 28.3125 14.5998 28.3086L22.5399 20.3675L26.7895 16.9684C26.9393 17.081 27.072 17.1913 27.2311 17.3052C27.3374 17.3812 27.4695 17.4119 27.5984 17.3905C27.7273 17.3691 27.8425 17.2974 27.9185 17.1912C27.9946 17.0849 28.0253 16.9527 28.0039 16.8238C27.9825 16.6949 27.9108 16.5798 27.8045 16.5037C25.2906 14.7042 23.7842 12.9785 22.9075 11.7125C22.2783 10.8041 21.9877 10.168 21.8694 9.873V9.79507L22.8045 8.85991L23.7666 10.127C23.8057 10.1786 23.8546 10.2219 23.9104 10.2546C23.9663 10.2873 24.028 10.3086 24.0921 10.3174C24.1563 10.3263 24.2215 10.3224 24.2841 10.306C24.3467 10.2896 24.4054 10.261 24.457 10.2219C24.5086 10.1828 24.5519 10.1339 24.5846 10.078C24.6172 10.0221 24.6386 9.96039 24.6474 9.89628C24.6562 9.83216 24.6522 9.76694 24.6358 9.70435C24.6194 9.64175 24.5908 9.583 24.5517 9.53145L23.5078 8.15662L24.3621 7.30229L26.6231 9.2409C26.6722 9.28304 26.7292 9.31508 26.7907 9.3352C26.8522 9.35532 26.9171 9.36312 26.9817 9.35817C27.0462 9.35321 27.1092 9.33558 27.1669 9.3063C27.2246 9.27702 27.276 9.23665 27.3182 9.18751C27.3603 9.13836 27.3924 9.08139 27.4125 9.01986C27.4326 8.95833 27.4404 8.89344 27.4354 8.82889C27.4305 8.76434 27.4129 8.70141 27.3836 8.64367C27.3543 8.58593 27.3139 8.53453 27.2648 8.49239L25.0606 6.60381L26.1603 5.50413L27.233 6.91649C27.2711 6.97064 27.3197 7.01656 27.376 7.0515C27.4322 7.08644 27.4949 7.10969 27.5603 7.11985C27.6258 7.13001 27.6926 7.12688 27.7568 7.11065C27.8209 7.09442 27.8812 7.06541 27.9339 7.02536C27.9867 6.98532 28.0308 6.93505 28.0636 6.87758C28.0965 6.8201 28.1174 6.75659 28.1252 6.69084C28.133 6.62508 28.1274 6.55844 28.1088 6.49489C28.0903 6.43134 28.0591 6.37218 28.0171 6.32095L26.8626 4.80181L27.2696 4.39484L28.4039 4.96248C28.5788 5.04991 28.7757 5.08333 28.9697 5.05849C29.1636 5.03365 29.3458 4.95167 29.493 4.82297L32.5736 2.12719ZM32.3821 3.63864C32.1383 3.63864 31.9396 3.83641 31.9396 4.08024C31.9396 4.32456 32.1383 4.5228 32.3821 4.5228C32.6265 4.5228 32.8247 4.32407 32.8247 4.08024C32.8247 3.83591 32.626 3.63864 32.3821 3.63864ZM34.7729 4.48335C34.7136 4.4813 34.6545 4.49121 34.599 4.5125C34.5436 4.53379 34.493 4.56602 34.4503 4.60728C34.4076 4.64853 34.3736 4.69796 34.3504 4.75262C34.3272 4.80728 34.3153 4.86606 34.3153 4.92544C34.3153 4.98482 34.3272 5.04359 34.3504 5.09825C34.3736 5.15291 34.4076 5.20234 34.4503 5.24359C34.493 5.28485 34.5436 5.31708 34.599 5.33837C34.6545 5.35966 34.7136 5.36957 34.7729 5.36752C34.8323 5.36957 34.8914 5.35966 34.9469 5.33837C35.0023 5.31708 35.0529 5.28485 35.0956 5.24359C35.1383 5.20234 35.1723 5.15291 35.1955 5.09825C35.2187 5.04359 35.2306 4.98482 35.2306 4.92544C35.2306 4.86606 35.2187 4.80728 35.1955 4.75262C35.1723 4.69796 35.1383 4.64853 35.0956 4.60728C35.0529 4.56602 35.0023 4.53379 34.9469 4.5125C34.8914 4.49121 34.8323 4.4813 34.7729 4.48335ZM33.3577 6.22955C33.1139 6.22955 32.9156 6.42779 32.9151 6.67212C32.9151 6.91644 33.1139 7.11372 33.3577 7.11372C33.602 7.11372 33.8003 6.91595 33.8003 6.67212C33.8003 6.42779 33.6015 6.22955 33.3577 6.22955Z" fill="white"/>
</svg>
