<svg width="48" height="48" viewBox="0 0 48 48" fill="none" xmlns="http://www.w3.org/2000/svg">
<g clip-path="url(#clip0_160_813)">
<path d="M36.5539 10.3139C35.2279 8.98789 33.0846 8.98789 31.7586 10.3139L29.9361 12.1303L35.8637 18.0578L37.6861 16.2354C39.0121 14.9094 39.0121 12.766 37.6861 11.44L36.5539 10.3139ZM18.4383 23.6342C18.0689 24.0035 17.7844 24.4576 17.6209 24.9602L15.8287 30.3367C15.6531 30.8574 15.7924 31.4326 16.1799 31.8262C16.5674 32.2197 17.1426 32.3529 17.6693 32.1773L23.0459 30.3852C23.5424 30.2217 23.9965 29.9371 24.3719 29.5678L34.5014 19.4322L28.5678 13.4986L18.4383 23.6342ZM13.8125 12.875C10.6035 12.875 8 15.4785 8 18.6875V34.1875C8 37.3965 10.6035 40 13.8125 40H29.3125C32.5215 40 35.125 37.3965 35.125 34.1875V28.375C35.125 27.3033 34.2592 26.4375 33.1875 26.4375C32.1158 26.4375 31.25 27.3033 31.25 28.375V34.1875C31.25 35.2592 30.3842 36.125 29.3125 36.125H13.8125C12.7408 36.125 11.875 35.2592 11.875 34.1875V18.6875C11.875 17.6158 12.7408 16.75 13.8125 16.75H19.625C20.6967 16.75 21.5625 15.8842 21.5625 14.8125C21.5625 13.7408 20.6967 12.875 19.625 12.875H13.8125Z" fill="white"/>
</g>
<defs>
<clipPath id="clip0_160_813">
<rect width="31" height="31" fill="white" transform="translate(8 9)"/>
</clipPath>
</defs>
</svg>
