<svg width="40" height="46" viewBox="0 0 40 46" fill="none" xmlns="http://www.w3.org/2000/svg">
<path d="M17.4194 0C16.3581 0 15.4839 0.874213 15.4839 1.93548V3.22581H8.55847C7.4264 3.22581 6.37388 3.82117 5.79133 4.79209L4.79587 6.45161H2.58065C1.16301 6.45161 0 7.61462 0 9.03226C0 10.4499 1.16301 11.6129 2.58065 11.6129H3.27369L5.57964 41.5864C5.73402 43.5973 7.42228 45.1613 9.43926 45.1613H30.5607C32.5777 45.1613 34.266 43.5973 34.4204 41.5864L36.7263 11.6129H37.4194C38.837 11.6129 40 10.4499 40 9.03226C40 7.61462 38.837 6.45161 37.4194 6.45161H35.2041L34.2087 4.79209C33.6261 3.82117 32.5736 3.22581 31.4415 3.22581H24.5161V1.93548C24.5161 0.874213 23.6419 0 22.5806 0H17.4194ZM17.4194 1.29032H22.5806C22.9452 1.29032 23.2258 1.57095 23.2258 1.93548V3.22581H16.7742V1.93548C16.7742 1.57095 17.0548 1.29032 17.4194 1.29032ZM8.55847 4.51613H16.0207C16.0903 4.52764 16.1614 4.52764 16.2311 4.51613H23.7626C23.8323 4.52764 23.9034 4.52764 23.973 4.51613H31.4415C32.1224 4.51613 32.7507 4.87223 33.1011 5.45615L34.0864 7.09677H31.9355C31.8927 7.09617 31.8503 7.10407 31.8106 7.12001C31.771 7.13595 31.7349 7.15961 31.7044 7.18963C31.674 7.21964 31.6498 7.25541 31.6333 7.29484C31.6168 7.33428 31.6083 7.37661 31.6083 7.41936C31.6083 7.46211 31.6168 7.50443 31.6333 7.54387C31.6498 7.5833 31.674 7.61907 31.7044 7.64908C31.7349 7.6791 31.771 7.70276 31.8106 7.7187C31.8503 7.73464 31.8927 7.74254 31.9355 7.74194H35.1613H37.4194C38.1398 7.74194 38.7097 8.31183 38.7097 9.03226C38.7097 9.75269 38.1398 10.3226 37.4194 10.3226H2.58065C1.86022 10.3226 1.29032 9.75269 1.29032 9.03226C1.29032 8.31183 1.86022 7.74194 2.58065 7.74194H5.16129H27.4194C27.4621 7.74254 27.5045 7.73464 27.5442 7.7187C27.5839 7.70276 27.62 7.6791 27.6504 7.64908C27.6809 7.61907 27.705 7.5833 27.7215 7.54387C27.738 7.50443 27.7465 7.46211 27.7465 7.41936C27.7465 7.37661 27.738 7.33428 27.7215 7.29484C27.705 7.25541 27.6809 7.21964 27.6504 7.18963C27.62 7.15961 27.5839 7.13595 27.5442 7.12001C27.5045 7.10407 27.4621 7.09617 27.4194 7.09677H5.91356L6.89894 5.45615C7.24929 4.87223 7.87763 4.51613 8.55847 4.51613ZM29.3548 7.09677C29.3121 7.09617 29.2697 7.10407 29.23 7.12001C29.1903 7.13595 29.1542 7.15961 29.1238 7.18963C29.0933 7.21964 29.0692 7.25541 29.0527 7.29484C29.0362 7.33428 29.0277 7.37661 29.0277 7.41936C29.0277 7.46211 29.0362 7.50443 29.0527 7.54387C29.0692 7.5833 29.0933 7.61907 29.1238 7.64908C29.1542 7.6791 29.1903 7.70276 29.23 7.7187C29.2697 7.73464 29.3121 7.74254 29.3548 7.74194H30.6452C30.6879 7.74254 30.7303 7.73464 30.77 7.7187C30.8097 7.70276 30.8458 7.6791 30.8762 7.64908C30.9067 7.61907 30.9308 7.5833 30.9473 7.54387C30.9638 7.50443 30.9723 7.46211 30.9723 7.41936C30.9723 7.37661 30.9638 7.33428 30.9473 7.29484C30.9308 7.25541 30.9067 7.21964 30.8762 7.18963C30.8458 7.15961 30.8097 7.13595 30.77 7.12001C30.7303 7.10407 30.6879 7.09617 30.6452 7.09677H29.3548ZM4.56653 11.6129H35.4335L33.1338 41.4882C33.0301 42.8386 31.9154 43.871 30.5607 43.871H9.43926C8.08464 43.871 6.96986 42.8386 6.86618 41.4882L4.56653 11.6129ZM12.2581 14.1935C11.1928 14.1935 10.3226 15.0638 10.3226 16.129V38.7097C10.3226 39.7749 11.1928 40.6452 12.2581 40.6452C13.3233 40.6452 14.1935 39.7749 14.1935 38.7097V16.129C14.1935 15.0638 13.3233 14.1935 12.2581 14.1935ZM20 14.1935C18.9348 14.1935 18.0645 15.0638 18.0645 16.129V38.7097C18.0645 39.7749 18.9348 40.6452 20 40.6452C21.0652 40.6452 21.9355 39.7749 21.9355 38.7097V36.4516C21.9361 36.4089 21.9282 36.3664 21.9123 36.3268C21.8963 36.2871 21.8726 36.251 21.8426 36.2205C21.8126 36.1901 21.7769 36.1659 21.7374 36.1494C21.698 36.1329 21.6557 36.1244 21.6129 36.1244C21.5702 36.1244 21.5278 36.1329 21.4884 36.1494C21.449 36.1659 21.4132 36.1901 21.3832 36.2205C21.3532 36.251 21.3295 36.2871 21.3136 36.3268C21.2976 36.3664 21.2897 36.4089 21.2903 36.4516V38.7097C21.2903 39.4264 20.7167 40 20 40C19.2833 40 18.7097 39.4264 18.7097 38.7097V16.129C18.7097 15.4123 19.2833 14.8387 20 14.8387C20.7167 14.8387 21.2903 15.4123 21.2903 16.129V32.5806C21.2897 32.6234 21.2976 32.6658 21.3136 32.7055C21.3295 32.7452 21.3532 32.7813 21.3832 32.8117C21.4132 32.8422 21.449 32.8663 21.4884 32.8828C21.5278 32.8993 21.5702 32.9078 21.6129 32.9078C21.6557 32.9078 21.698 32.8993 21.7374 32.8828C21.7769 32.8663 21.8126 32.8422 21.8426 32.8117C21.8726 32.7813 21.8963 32.7452 21.9123 32.7055C21.9282 32.6658 21.9361 32.6234 21.9355 32.5806V16.129C21.9355 15.0638 21.0652 14.1935 20 14.1935ZM27.7419 14.1935C26.6767 14.1935 25.8064 15.0638 25.8064 16.129V17.0968C25.8058 17.1395 25.8137 17.182 25.8297 17.2216C25.8456 17.2613 25.8693 17.2974 25.8993 17.3278C25.9293 17.3583 25.9651 17.3825 26.0045 17.399C26.044 17.4155 26.0863 17.424 26.129 17.424C26.1718 17.424 26.2141 17.4155 26.2535 17.399C26.293 17.3825 26.3287 17.3583 26.3588 17.3278C26.3888 17.2974 26.4124 17.2613 26.4284 17.2216C26.4443 17.182 26.4522 17.1395 26.4516 17.0968V16.129C26.4516 15.4123 27.0252 14.8387 27.7419 14.8387C28.4586 14.8387 29.0323 15.4123 29.0323 16.129V38.7097C29.0323 39.4264 28.4586 40 27.7419 40C27.0252 40 26.4516 39.4264 26.4516 38.7097V22.2581C26.4522 22.2153 26.4443 22.1729 26.4284 22.1332C26.4124 22.0935 26.3888 22.0574 26.3588 22.027C26.3287 21.9966 26.293 21.9724 26.2535 21.9559C26.2141 21.9394 26.1718 21.9309 26.129 21.9309C26.0863 21.9309 26.044 21.9394 26.0045 21.9559C25.9651 21.9724 25.9293 21.9966 25.8993 22.027C25.8693 22.0574 25.8456 22.0935 25.8297 22.1332C25.8137 22.1729 25.8058 22.2153 25.8064 22.2581V38.7097C25.8064 39.7749 26.6767 40.6452 27.7419 40.6452C28.8072 40.6452 29.6774 39.7749 29.6774 38.7097V16.129C29.6774 15.0638 28.8072 14.1935 27.7419 14.1935ZM12.2581 14.8387C12.9748 14.8387 13.5484 15.4123 13.5484 16.129V38.7097C13.5484 39.4264 12.9748 40 12.2581 40C11.5414 40 10.9677 39.4264 10.9677 38.7097V16.129C10.9677 15.4123 11.5414 14.8387 12.2581 14.8387ZM26.124 18.7046C26.0816 18.7053 26.0398 18.7143 26.0009 18.7311C25.962 18.7479 25.9269 18.7723 25.8974 18.8027C25.8679 18.8331 25.8447 18.869 25.8291 18.9084C25.8135 18.9478 25.8058 18.9899 25.8064 19.0323V20.3226C25.8058 20.3653 25.8137 20.4078 25.8297 20.4474C25.8456 20.4871 25.8693 20.5232 25.8993 20.5536C25.9293 20.5841 25.9651 20.6083 26.0045 20.6248C26.044 20.6413 26.0863 20.6498 26.129 20.6498C26.1718 20.6498 26.2141 20.6413 26.2535 20.6248C26.293 20.6083 26.3287 20.5841 26.3588 20.5536C26.3888 20.5232 26.4124 20.4871 26.4284 20.4474C26.4443 20.4078 26.4522 20.3653 26.4516 20.3226V19.0323C26.4523 18.989 26.4443 18.9461 26.428 18.9061C26.4118 18.866 26.3877 18.8296 26.3572 18.7991C26.3266 18.7685 26.2902 18.7444 26.2502 18.7282C26.2101 18.712 26.1672 18.704 26.124 18.7046Z" fill="white"/>
</svg>
