<svg xmlns="http://www.w3.org/2000/svg" xmlns:xlink="http://www.w3.org/1999/xlink" width="48" zoomAndPan="magnify" viewBox="0 0 36 36.000001" height="48" preserveAspectRatio="xMidYMid meet" version="1.0"><defs><clipPath id="b7fdbd5a9a"><path d="M 0.488281 0 L 20 0 L 20 35 L 0.488281 35 Z M 0.488281 0 " clip-rule="nonzero"/></clipPath><clipPath id="77d351014a"><path d="M 21 11 L 35.511719 11 L 35.511719 24 L 21 24 Z M 21 11 " clip-rule="nonzero"/></clipPath></defs><g clip-path="url(#b7fdbd5a9a)"><path fill="#ffffff" d="M 19.164062 1.164062 C 19.164062 0.828125 19.015625 0.503906 18.761719 0.285156 C 18.507812 0.0625 18.167969 -0.0351562 17.835938 0.0117188 L 3.542969 2.054688 C 1.820312 2.300781 0.542969 3.773438 0.542969 5.507812 L 0.542969 29.402344 C 0.542969 31.136719 1.820312 32.609375 3.542969 32.855469 L 17.835938 34.898438 C 18.167969 34.945312 18.507812 34.847656 18.761719 34.625 C 19.015625 34.40625 19.164062 34.085938 19.164062 33.746094 Z M 14.507812 15.128906 C 15.152344 15.128906 15.671875 15.648438 15.671875 16.292969 L 15.671875 18.617188 C 15.671875 19.261719 15.152344 19.78125 14.507812 19.78125 C 13.867188 19.78125 13.34375 19.261719 13.34375 18.617188 L 13.34375 16.292969 C 13.34375 15.648438 13.867188 15.128906 14.507812 15.128906 Z M 14.507812 15.128906 " fill-opacity="1" fill-rule="evenodd"/></g><path fill="#ffffff" d="M 21.492188 32.582031 L 27.308594 32.582031 C 29.238281 32.582031 30.800781 31.019531 30.800781 29.09375 L 30.800781 26.765625 C 30.800781 26.121094 30.28125 25.601562 29.636719 25.601562 C 28.996094 25.601562 28.472656 26.121094 28.472656 26.765625 L 28.472656 29.09375 C 28.472656 29.734375 27.953125 30.257812 27.308594 30.257812 L 21.492188 30.257812 Z M 21.492188 32.582031 " fill-opacity="1" fill-rule="nonzero"/><path fill="#ffffff" d="M 21.492188 4.65625 L 21.492188 2.328125 L 27.308594 2.328125 C 29.238281 2.328125 30.800781 3.890625 30.800781 5.820312 L 30.800781 8.144531 C 30.800781 8.789062 30.28125 9.308594 29.636719 9.308594 C 28.996094 9.308594 28.472656 8.789062 28.472656 8.144531 L 28.472656 5.820312 C 28.472656 5.175781 27.953125 4.65625 27.308594 4.65625 Z M 21.492188 4.65625 " fill-opacity="1" fill-rule="nonzero"/><g clip-path="url(#77d351014a)"><path fill="#ffffff" d="M 30.460938 11.976562 C 30.003906 11.523438 29.269531 11.523438 28.8125 11.976562 C 28.359375 12.433594 28.359375 13.167969 28.8125 13.625 L 31.480469 16.292969 L 22.65625 16.292969 C 22.011719 16.292969 21.492188 16.8125 21.492188 17.457031 C 21.492188 18.097656 22.011719 18.617188 22.65625 18.617188 L 31.480469 18.617188 L 28.8125 21.289062 C 28.359375 21.742188 28.359375 22.476562 28.8125 22.933594 C 29.269531 23.386719 30.003906 23.386719 30.460938 22.933594 L 35.113281 18.28125 C 35.324219 18.070312 35.457031 17.777344 35.457031 17.457031 C 35.457031 17.148438 35.335938 16.867188 35.140625 16.660156 L 35.132812 16.648438 L 35.113281 16.632812 Z M 30.460938 11.976562 " fill-opacity="1" fill-rule="nonzero"/></g></svg>
