<svg width="48" height="48" viewBox="0 0 48 48" fill="none" xmlns="http://www.w3.org/2000/svg">
<circle cx="24" cy="24" r="20" stroke="#FCFBFB" stroke-width="2"/>
<path d="M30.9283 15.5846L37.4041 22.0604C37.7838 22.44 38 22.9621 38 23.5C38 24.0379 37.7838 24.56 37.4041 24.9396L30.9283 31.4154C30.5908 31.7529 30.1373 31.9375 29.6627 31.9375C28.6766 31.9375 27.875 31.1359 27.875 30.1498V26.875H21.125C20.1916 26.875 19.4375 26.1209 19.4375 25.1875V21.8125C19.4375 20.8791 20.1916 20.125 21.125 20.125H27.875V16.8502C27.875 15.8641 28.6766 15.0625 29.6627 15.0625C30.1373 15.0625 30.5908 15.2523 30.9283 15.5846ZM19.4375 15.0625H16.0625C15.1291 15.0625 14.375 15.8166 14.375 16.75V30.25C14.375 31.1834 15.1291 31.9375 16.0625 31.9375H19.4375C20.3709 31.9375 21.125 32.6916 21.125 33.625C21.125 34.5584 20.3709 35.3125 19.4375 35.3125H16.0625C13.2676 35.3125 11 33.0449 11 30.25V16.75C11 13.9551 13.2676 11.6875 16.0625 11.6875H19.4375C20.3709 11.6875 21.125 12.4416 21.125 13.375C21.125 14.3084 20.3709 15.0625 19.4375 15.0625Z" fill="#FCFBFB"/>
</svg>
